<?xml version="1.0" encoding="iso-8859-1"?>
<!-- Generator: Adobe Illustrator 17.1.0, SVG Export Plug-In . SVG Version: 6.00 Build 0)  -->
<!DOCTYPE svg PUBLIC "-//W3C//DTD SVG 1.1//EN" "http://www.w3.org/Graphics/SVG/1.1/DTD/svg11.dtd">
<svg version="1.1" id="Capa_1" xmlns="http://www.w3.org/2000/svg" xmlns:xlink="http://www.w3.org/1999/xlink" x="0px" y="0px"
	 viewBox="0 0 367.998 367.998" style="enable-background:new 0 0 367.998 367.998;" xml:space="preserve">
<path d="M310.193,276.886c4.185-2.558,15.298-9.351,27.5-55.795c3.366-12.813,10.805-44.002,7.185-56.865
	c-2.382-8.465-9.609-14.152-17.985-14.152h-39.008l1.567-16.112c5.537-9.119,8.729-19.813,8.729-31.238
	c0-33.284-27.079-60.363-60.364-60.363c-1.612,0-3.224,0.064-4.828,0.192C222.325,17.061,197.286,0,168.957,0
	c-28.425,0-53.302,16.938-63.977,42.378c-0.48-0.012-0.961-0.018-1.441-0.018c-33.285,0-60.364,27.079-60.364,60.363
	c0,11.548,3.265,22.345,8.912,31.527l14.626,151.133c1.134,12.869,4.571,23.901,10.265,33.061h-30.05
	c-13.661,0-24.776,11.115-24.776,24.777c0,13.661,11.115,24.776,24.776,24.776h247.499c13.661,0,24.776-11.115,24.776-24.776
	c0-13.662-11.115-24.777-24.776-24.777h-29.468c4.842-7.978,8.209-17.854,9.494-30.081
	C284.05,287.039,298.614,283.963,310.193,276.886z M309.914,184.854c-1.061,6.774-2.861,15.854-5.629,26.517
	c-5.42,20.875-10.816,32.995-13.316,36.466c-3.714,2.025-8.452,3.5-13.036,4.547l6.569-67.529H309.914z M103.539,72.36
	c2.268,0,4.541,0.257,6.759,0.763c1.134,0.259,2.303,0.39,3.474,0.39c7.698,0,15.077-5.766,16.797-13.119
	C134.761,42.498,150.547,30,168.957,30c18.08,0,33.797,12.228,38.222,29.733c2.436,9.642,12.784,13.978,19.355,13.978
	c1.384,0,2.75-0.163,4.052-0.482c2.354-0.576,4.786-0.868,7.23-0.868c16.743,0,30.364,13.621,30.364,30.363
	c0,1.8-0.167,3.561-0.468,5.276H73.643c-0.302-1.715-0.468-3.476-0.468-5.276C73.174,85.981,86.795,72.36,103.539,72.36z"/>
<g>
</g>
<g>
</g>
<g>
</g>
<g>
</g>
<g>
</g>
<g>
</g>
<g>
</g>
<g>
</g>
<g>
</g>
<g>
</g>
<g>
</g>
<g>
</g>
<g>
</g>
<g>
</g>
<g>
</g>
</svg>
